<?xml version="1.0" encoding="UTF-8"?>
<svg version="1.1" xmlns="http://www.w3.org/2000/svg" width="500" height="500">
<path d="M0 0 C165 0 330 0 500 0 C500 165 500 330 500 500 C335 500 170 500 0 500 C0 335 0 170 0 0 Z " fill="#202020" transform="translate(0,0)"/>
<path d="M0 0 C165 0 330 0 500 0 C500 165 500 330 500 500 C335 500 170 500 0 500 C0 335 0 170 0 0 Z M23 23 C23 172.82 23 322.64 23 477 C172.82 477 322.64 477 477 477 C477 327.18 477 177.36 477 23 C327.18 23 177.36 23 23 23 Z " fill="#111111" transform="translate(0,0)"/>
<path d="M0 0 C0.88945312 0.2784375 1.77890625 0.556875 2.6953125 0.84375 C13.44120541 4.65574871 23.38460495 12.87686434 28.57421875 23.1015625 C29.82368244 26.04442541 30.97859848 28.97086503 32 32 C32.20753906 32.61230469 32.41507812 33.22460938 32.62890625 33.85546875 C33.2058662 37.18968996 33 40.61622786 33 44 C23.1 44 13.2 44 3 44 C2.01 41.03 1.02 38.06 0 35 C-3.44597941 29.7818026 -7.23265201 27.12441627 -13 25 C-16.02643568 24.49564983 -18.93853769 24.48152275 -22 24.5625 C-22.75539062 24.55541016 -23.51078125 24.54832031 -24.2890625 24.54101562 C-31.02830941 24.61628213 -36.66936499 25.97336086 -41.875 30.5 C-45.58092537 34.8599122 -46.29434769 37.13082542 -46.3125 42.8125 C-46.32925781 44.01519531 -46.34601563 45.21789062 -46.36328125 46.45703125 C-45.96913232 50.30104282 -44.88232323 52.65947194 -43 56 C-42.67 56.99 -42.34 57.98 -42 59 C-40.19867669 60.1097639 -40.19867669 60.1097639 -38 61 C-36.89398438 61.56847656 -36.89398438 61.56847656 -35.765625 62.1484375 C-30.36116827 64.78352976 -25.03497142 66.63018931 -19.1875 68 C0.92982182 72.74090368 18.76415284 79.94403986 30 98 C36.40625053 110.95451153 38.36935258 124.94518262 34.375 139 C30.17774251 150.78460758 21.96784119 160.546124 10.98046875 166.61328125 C-5.79931676 174.42038984 -27.11582625 176.34310454 -45 171 C-58.2146608 166.17646679 -69.32996142 158.5389639 -75.875 145.8125 C-76.60378325 144.21751982 -77.31492102 142.61423468 -78 141 C-78.6496875 139.4840625 -78.6496875 139.4840625 -79.3125 137.9375 C-80 135 -80 135 -80 126 C-70.1 126 -60.2 126 -50 126 C-49.01 128.97 -48.02 131.94 -47 135 C-42.87827506 140.9863148 -38.8899361 143.76656711 -32 146 C-28.64248196 146.52159179 -25.39219347 146.56262511 -22 146.5 C-21.16210938 146.51546875 -20.32421875 146.5309375 -19.4609375 146.546875 C-11.95930066 146.50042524 -5.98144183 144.39811625 -0.125 139.6875 C4.14977373 134.28116852 5.57854777 129.28111053 5.3515625 122.4921875 C4.44493966 116.06523895 1.00598188 111.02655064 -4 107 C-12.98678373 101.60461971 -22.96693953 98.82490652 -33 96.0625 C-49.52482454 91.34112156 -63.16551007 84.04924506 -72.23828125 68.9375 C-78.25396249 57.73739529 -79.36319261 42.33458192 -76.125 30.05859375 C-71.5565818 17.3301391 -63.00008358 8.64874892 -51.25 2.25 C-35.56057434 -5.01895409 -16.35483578 -5.25529349 0 0 Z " fill="#FCFCFC" transform="translate(201,166)"/>
<path d="M0 0 C9.9 0 19.8 0 30 0 C30 13.2 30 26.4 30 40 C46.17 40 62.34 40 79 40 C79 48.91 79 57.82 79 67 C62.83 67 46.66 67 30 67 C30.11994634 78.93957629 30.11994634 78.93957629 30.2578125 90.87890625 C30.31804406 95.75077292 30.37620816 100.6226011 30.421875 105.49462891 C30.45883801 109.42400431 30.50522735 113.35316718 30.55806351 117.28236008 C30.57654908 118.77896763 30.59167844 120.27562065 30.60334396 121.77229691 C30.62030698 123.87397117 30.64936462 125.97516485 30.68115234 128.07666016 C30.69447601 129.27134918 30.70779968 130.46603821 30.7215271 131.69692993 C31.0098922 135.1173351 31.67740209 137.837398 33 141 C37.16782841 143.72787159 42.19023681 143.34663092 47.01953125 143.4140625 C48.30738777 143.44311172 48.30738777 143.44311172 49.6212616 143.4727478 C52.35157474 143.53231556 55.08193057 143.57883734 57.8125 143.625 C59.66863773 143.66320079 61.52475812 143.70225375 63.38085938 143.7421875 C67.92048048 143.83959555 72.4599269 143.91934419 77 144 C77 152.91 77 161.82 77 171 C70.64956636 171.09229536 64.30149999 171.1717941 57.95092773 171.21972656 C55.79492263 171.23972691 53.63897096 171.26693624 51.4831543 171.30175781 C48.36754088 171.35078853 45.25265029 171.37308514 42.13671875 171.390625 C41.18729904 171.41127014 40.23787933 171.43191528 39.25968933 171.45318604 C28.14074776 171.45683696 18.29344259 167.39134883 10 160 C2.79777361 151.55181883 -0.13303448 141.89841017 -0.11352539 130.91479492 C-0.11367142 130.22156128 -0.11381744 129.52832764 -0.1139679 128.81408691 C-0.11327451 126.53618171 -0.10550915 124.25835957 -0.09765625 121.98046875 C-0.09579003 120.39577784 -0.09436709 118.81108635 -0.09336853 117.22639465 C-0.08955943 113.0655049 -0.07974292 108.90465032 -0.06866455 104.74377441 C-0.05661233 99.74604265 -0.05204053 94.7482991 -0.04621124 89.75055695 C-0.03653027 82.16701353 -0.01736248 74.58354724 0 67 C-11.88 67 -23.76 67 -36 67 C-36 58.09 -36 49.18 -36 40 C-24.12 40 -12.24 40 0 40 C0 26.8 0 13.6 0 0 Z " fill="#FDFDFD" transform="translate(297,166)"/>
<path d="M0 0 C0 10.89 0 21.78 0 33 C2.97 33 5.94 33 9 33 C9 34.98 9 36.96 9 39 C0.42 39 -8.16 39 -17 39 C-17 37.02 -17 35.04 -17 33 C-13.37 33 -9.74 33 -6 33 C-6.33 24.42 -6.66 15.84 -7 7 C-9.31 8.65 -11.62 10.3 -14 12 C-14.66 12 -15.32 12 -16 12 C-16.5 9.375 -16.5 9.375 -16 6 C-11.00570033 0.225341 -7.89013196 0 0 0 Z " fill="#FAFAFA" transform="translate(71,52)"/>
</svg>
